# xmcd CD database file
#
# Track frame offsets:
#	150
#	16725
#	31876
#	52021
#	63420
#	83712
#	103673
#	119713
#	146954
#	169150
#
# Disc length: 2431 seconds
#
# Revision: 0
# Processed by: cddbd v1.5.2PL0 Copyright (c) Steve Scherf et al.
# Submitted via: CDex 1.50
#
DISCID=89097d0a
DTITLE=Jeff Bridges - Jeff Bridges
DYEAR=2011
DGENRE=Country
TTITLE0=What A Little Bit Of Love Can Do
TTITLE1=Falling Short
TTITLE2=Everything But Love
TTITLE3=Tumbling Vine
TTITLE4=Nothing Yet
TTITLE5=Blue Car
TTITLE6=Maybe I Missed The Point
TTITLE7=Slow Boat
TTITLE8=Either Way
TTITLE9=The Quest
EXTD=YEAR: 2011
EXTT0=
EXTT1=
EXTT2=
EXTT3=
EXTT4=
EXTT5=
EXTT6=
EXTT7=
EXTT8=
EXTT9=
PLAYORDER=
